<?xml version="1.0" encoding="utf-8"?>
<!-- Generator: Adobe Illustrator 27.5.0, SVG Export Plug-In . SVG Version: 6.00 Build 0)  -->
<svg version="1.1" id="Слой_1" xmlns="http://www.w3.org/2000/svg" xmlns:xlink="http://www.w3.org/1999/xlink" x="0px" y="0px"
	 viewBox="0 0 500 500" style="enable-background:new 0 0 500 500;" xml:space="preserve">
<g>
	<rect style="fill:#FFFFFF;" width="500" height="500"/>
	<g>
		<g>
			<linearGradient id="SVGID_1_" gradientUnits="userSpaceOnUse" x1="123.2906" y1="239.0164" x2="420.6044" y2="239.0164">
				<stop  offset="0" style="stop-color:#EEA3B7"/>
				<stop  offset="1" style="stop-color:#E985A0"/>
			</linearGradient>
			<path style="fill:url(#SVGID_1_);" d="M352.41,230.129v-36.143l-27.3,123.038c-0.692,3.124-3.31,5.449-6.492,5.77
				c-0.25,0.024-0.498,0.036-0.744,0.036c-2.903,0-5.568-1.703-6.767-4.397l-36.005-80.893h-83.243c-4.092,0-7.41-3.316-7.41-7.41
				c0-4.093,3.318-7.41,7.41-7.41h88.055c2.927,0,5.579,1.722,6.77,4.397l28.825,64.763l37.078-167.102
				c0.818-3.691,4.288-6.153,8.041-5.763c3.758,0.413,6.603,3.587,6.603,7.367v96.338h44.73c4.325-9.39,7.159-18.393,7.983-26.711
				l0.661-0.968h-0.539c0.345-3.081,0.539-6.207,0.539-9.38c0-46.113-37.382-83.494-83.494-83.494
				c-26.365,0-49.861,12.233-65.163,31.319c-15.302-19.086-38.798-31.319-65.163-31.319c-46.113,0-83.494,37.381-83.494,83.494
				c0,3.173,0.193,6.299,0.538,9.38h-0.538l0.656,0.924c18.893,74.014,150.848,179.903,150.848,179.903
				s91.52-74.294,129.341-138.328H359.82C355.728,237.539,352.41,234.223,352.41,230.129z"/>
		</g>
		<g>
			<g>
				<path style="fill:#FFC7C7;" d="M137.935,374.022c-0.491-3.018-0.211-7.069-0.211-7.069s-3.92-9.925-6.44,0
					c-0.615,2.421-0.485,5.157-0.786,7.069h6.877L137.935,374.022z"/>
				<path style="fill:#262626;" d="M148.084,378.974c-1.633,0.093-4.48-0.559-7.641-2.656c-0.924-0.613-1.539-1.67-1.948-2.857l0,0
					l0,0h-8.557c-0.933,5.928-0.614,9.286-0.614,9.286h4.34l0.14-2.097l0.56,2.097h16.8
					C151.164,382.749,151.753,378.765,148.084,378.974z"/>
			</g>
			<g>
				<path style="fill:#FFC7C7;" d="M108.823,374.022c-0.491-3.018-0.211-7.069-0.211-7.069s-3.92-9.925-6.44,0
					c-0.615,2.421-0.485,5.157-0.786,7.069h6.877L108.823,374.022z"/>
				<path style="fill:#262626;" d="M118.972,378.974c-1.633,0.093-4.48-0.559-7.641-2.656c-0.924-0.613-1.539-1.67-1.948-2.857l0,0
					l0,0h-8.557c-0.933,5.928-0.614,9.286-0.614,9.286h4.34l0.14-2.097l0.56,2.097h16.8
					C122.052,382.749,122.641,378.765,118.972,378.974z"/>
			</g>
			<path style="fill:#FFC7C7;" d="M155.515,204.156c0,0,2.039-1.079,4.552-1.245s8.899-3.858,10.312-6.463
				c1.413-2.606-2.769,0-2.769,0s3.335-1.303,3.391-2.443c0.057-1.14-4.037,0.516-4.037,0.516s2.454-0.299,2.511-1.33
				c0.056-1.032-4.069-0.434-6.443,0.814c-2.374,1.249-6.228,3.148-5.246,0.936c0.982-2.212,1.932-3.962,0.217-2.841
				c-1.073,0.701-2.882,4.245-3.221,5.952s-1.752,2.033-1.752,2.033L155.515,204.156z"/>
			<path style="fill:#C3D8F2;" d="M112.664,165.608c0,0,5.12-0.736,8.545,0c3.425,0.736-4.451,8.126-4.607,7.976
				c-0.156-0.15-4.946-4.451-4.946-4.451L112.664,165.608z"/>
			<g>
				<rect x="113.458" y="156.22" style="fill:#FFC7C7;" width="7.627" height="13.764"/>
			</g>
			<path style="fill:#FFC7C7;" d="M121.085,164.474v-8.254h-7.627v3.452c2.744,2.941,6.216,4.339,6.216,4.339v0.001
				C120.137,164.182,120.61,164.336,121.085,164.474z"/>
			<path style="fill:#606060;" d="M98.701,230.344l0.051,9.783l0.023,0.008c0,0,0.016,33.972,3.204,55.4
				c0.21,1.408-1.485,10.264-1.792,11.658c-0.736,3.343-1.98,11.472-1.528,27.01c0.628,21.618,2.026,35.63,2.026,35.63l9.474,0.373
				l6.219-69.469l2.768-69.474L98.701,230.344z"/>
			<path style="fill:#515151;" d="M113.424,231.425l1.026,9.734l0.023,0.006c0,0,3.403,33.815,8.713,54.851
				c0.349,1.382-0.455,10.354-0.621,11.769c-0.399,3.396-0.827,11.601,1.172,27.026c2.781,21.461,5.569,35.28,5.569,35.28
				l9.467-0.501l-0.736-69.721l-4.171-69.409L113.424,231.425z"/>
			<path style="fill:#FFC7C7;" d="M114.08,150.02c0,0-1.02-3.175-2.694-2.206c-1.674,0.969-0.09,7.925,2.281,7.365
				S114.08,150.02,114.08,150.02z"/>
			<g>
				<rect x="113.458" y="156.22" style="fill:#FFC7C7;" width="7.627" height="13.764"/>
			</g>
			<path style="fill:#FFC7C7;" d="M121.085,164.474v-8.254h-7.627v3.452c2.744,2.941,6.216,4.339,6.216,4.339v0.001
				C120.137,164.182,120.61,164.336,121.085,164.474z"/>
			<path style="fill:#DEF1F9;" d="M152.849,197.101l-12.003,10.878l-2.41-26.076c-0.009-0.149-0.024-0.316-0.043-0.466
				c-0.483-3.739-3.486-12.991-7.379-12.527c-0.397,0.047-0.779,0.133-1.15,0.238c-5.407,2.006-4.172,11.697-3.599,18.408
				l4.237,32.808l0.042,0.328c0.154,1.182,0.725,2.319,1.706,3.191c2.209,1.963,5.657,1.835,7.701-0.288l18.258-17.798
				L152.849,197.101z"/>
			<path style="fill:#FFC7C7;" d="M114.08,150.02c0,0-1.02-3.175-2.694-2.206c-1.674,0.969-0.09,7.925,2.281,7.365
				S114.08,150.02,114.08,150.02z"/>
			<path style="fill:#7373E0;" d="M134.826,240.887l2.239-55.747c0.26-9.198-2.899-16.798-12.788-17.709l-7.537-0.895
				c0,0-13.731,0.86-16.336,1.64c-2.604,0.78-4.929,3.857-5.486,14.545c-0.003,0.053,0.003,0.094,0.002,0.145
				c-0.067,0.743-0.106,1.498-0.084,2.274l3.028,55.747H134.826z"/>
			<path style="fill:#FFC7C7;" d="M126.462,136.215c-1.533-2.237-7.753-4.443-11.771-1.84c-4.019,2.603-5.307,6.648-5.54,12.254
				c-0.123,2.954,1.287,6.315,2.648,8.835c2.735,4.527,8.311,6.002,8.311,6.002v0.001c1.943,0.448,4.013,0.619,5.618-0.009
				c3.235-3.954,3.489-9.898,3.414-12.622c-0.236-3.024-0.585-5.462-0.656-5.945C128.486,142.891,127.995,138.452,126.462,136.215z"
				/>
			<path style="fill:#FFC7C7;" d="M113.676,165.496l-1.858,0.589l-0.979,0.881c0,0,0.764,10.069,7.15,10.036
				c6.387-0.033,5.415-9.902,5.415-9.902l-4.582-0.967L113.676,165.496z"/>
			<path style="fill:#FFC7C7;" d="M111.799,155.464c-1.362-2.52-2.771-5.881-2.648-8.835c0.188-4.505,1.06-7.999,3.479-10.55
				c0.946-0.637,2.161-1.223,3.772-1.722c1.149-0.356,2.37-0.424,3.551-0.219c1.103,0.191,2.778,0.449,4.948,0.7
				c0.686,0.428,1.235,0.9,1.562,1.377c1.534,2.237,2.024,6.675,2.024,6.675c0.042,0.285,0.181,1.256,0.337,2.623
				c-2.525,1.67-5.338,1.455-7.79-0.193c-2.834-1.904-8.104,1.234-7.231,5.379c0.405,1.923,1.473,5.496,2.213,8.895
				C114.518,158.656,112.92,157.32,111.799,155.464z"/>
			<path style="fill:#FCFCFC;" d="M133.914,170.335c0,0-1.002-1.857-6.551-2.705c-5.549-0.848,3.847,8.541,3.847,8.541
				L133.914,170.335z"/>
			<path style="fill:#EBFCFF;" d="M139.449,302.592L139.449,302.592c-0.301-9.942-1.643-54.674-2.146-78.553
				c-0.339-16.048-0.274-32.479-0.167-43.154c0.072-7.183-5.512-13.228-12.937-14.078c-0.828-0.095-1.688-0.186-2.577-0.271
				c0,0,2.682,7.117-4.726,35.949c-0.005-0.023-0.009-0.048-0.014-0.071c-6.036-28.88-4.217-36.006-4.217-36.006
				c-3.88,0.326-7.272,0.738-10.026,1.133c-4.463,0.639-7.741,4.346-7.677,8.68c0.148,10.097,0.315,29.149-0.13,47.69
				c-0.575,23.976-2.112,68.985-2.446,78.681C92.385,302.592,118.68,307.683,139.449,302.592z"/>
			<path style="fill:#FFC7C7;" d="M99.596,184.197l-11.545,30.726l-2.207-5.639l30.178,17.662c1.239,0.725,1.656,2.318,0.931,3.557
				c-0.675,1.154-2.103,1.594-3.296,1.064l-31.974-14.152c-2.066-0.915-3.053-3.261-2.308-5.356l0.102-0.283l11.069-30.901
				c0.898-2.507,3.658-3.811,6.164-2.913c2.507,0.898,3.811,3.658,2.913,6.164C99.617,184.142,99.602,184.182,99.596,184.197z"/>
			<path style="fill:#2E2E4F;" d="M123.157,131.443c2.101,0.785,3.727,2.484,4.609,4.547c0.344,0.806,0.851,1.617,1.537,1.813
				c1.465,0.419,3.666,1.493,2.666,4.193c-1,2.7-4.619,4.458-7.259,3.669c-2.64-0.789-5.083-3.485-7.198-2.277
				c-2.115,1.208-1.03,6.912-3.202,5.961c-2.172-0.951-2.867,1.958-0.683,4.374c2.18,2.412,1.004,5.397-0.461,4.978
				c-1.465-0.419-4.904-5.517-5.298-11.579c-0.394-6.062,2.465-12.798,6.638-13.357
				C114.505,133.765,118.099,129.554,123.157,131.443z"/>
			<path style="fill:#2E2E4F;" d="M115.758,148.038c0,0,1.117,3.478,2.095,4.479c0.978,1.002,3.463-0.55,5.7-0.021
				c3.143,0.744,5.405,0.406,5.405,0.406s-0.597,8.504-3.348,9.297c-2.751,0.793-8.925-0.714-9.672-1.936s0.662-9.599-1.628-10.915
				C112.02,148.032,115.758,148.038,115.758,148.038z"/>
			<path style="fill:#FFC7C7;" d="M112.06,231.871c0,0,2.465,0.63,4.054,2.045c1.589,1.415,9.989,1.9,11.316,0.066
				c1.327-1.834-0.272-2.449-0.272-2.449s1.191,0.098,1.127-0.523c-0.142-1.383-11.418-2.604-9.832-3.433
				c1.586-0.83,4.125,1.407,4.813,1.026c0.688-0.381-0.806-1.899-4.698-3.036c0,0-0.926-0.418-6.426,1.05
				C106.644,228.085,112.06,231.871,112.06,231.871z"/>
			
				<rect x="117.915" y="213.23" transform="matrix(-0.9839 -0.1785 0.1785 -0.9839 218.4406 485.1198)" style="fill:#303030;" width="26.251" height="39.009"/>
			<path style="fill:#FFC7C7;" d="M118.569,225.567c0,0-0.926-0.418-6.426,1.05c-5.499,1.468-0.083,5.255-0.083,5.255
				s2.465,0.63,4.054,2.045c1.589,1.415,9.989,1.9,11.316,0.066c1.327-1.834-0.272-2.449-0.272-2.449s1.191,0.098,1.127-0.523
				c-0.142-1.383-11.418-2.604-9.832-3.433L118.569,225.567z"/>
			<path style="fill:#BFBFBF;" d="M135.727,216.885c0,0.552,0.447,0.999,0.999,0.999s0.999-0.447,0.999-0.999
				c0-0.552-0.447-0.999-0.999-0.999S135.727,216.334,135.727,216.885z"/>
			<path style="fill:#BFBFBF;" d="M130.723,215.886c0,0.552,0.447,0.999,0.999,0.999c0.552,0,0.999-0.447,0.999-0.999
				s-0.447-0.999-0.999-0.999C131.17,214.887,130.723,215.335,130.723,215.886z"/>
			<path style="fill:#EAF8FF;" d="M100.405,168.176c0,0-7.064,0.666-10.753,13.75c-3.689,13.084-11.118,27.053-11.438,29.577
				c-1.253,9.913,31.143,21.538,31.143,21.538s0.374-6.742,5.108-9.585c0,0-25.549-12.044-23.765-14.497
				c3.114-4.281,7.397-16.13,7.397-16.13S102.172,175.778,100.405,168.176z"/>
			<g>
				<path style="fill:#999999;" d="M129.384,184.673c-0.009-0.146-0.923-14.712-2.658-17.27c-1.711-2.522-5.602-2.551-5.641-2.551
					v-0.757c0.176,0,4.333,0.032,6.267,2.883c1.851,2.727,2.75,17.04,2.788,17.648L129.384,184.673z"/>
			</g>
			<g>
				<path style="fill:#999999;" d="M105.182,184.673l-0.755-0.046c0.037-0.608,0.937-14.921,2.787-17.648
					c1.934-2.851,6.091-2.883,6.267-2.883l0,0.757c-0.039,0-3.935,0.035-5.642,2.551
					C106.106,169.962,105.191,184.527,105.182,184.673z"/>
			</g>
			
				<linearGradient id="SVGID_00000156573908517219491500000002902856611206858683_" gradientUnits="userSpaceOnUse" x1="73.2308" y1="154.4348" x2="107.5362" y2="176.1279">
				<stop  offset="0" style="stop-color:#F8F8F8"/>
				<stop  offset="1" style="stop-color:#D7F8FF"/>
			</linearGradient>
			<polygon style="fill:url(#SVGID_00000156573908517219491500000002902856611206858683_);" points="128.389,167.559 
				125.498,179.335 128.622,181.736 116.724,203.694 121.209,165.608 			"/>
			<path style="fill:#B7B7B7;" d="M127.447,186.753c0-1.278,1.036-2.315,2.315-2.315s2.315,1.036,2.315,2.315
				s-1.036,2.315-2.315,2.315S127.447,188.032,127.447,186.753z"/>
			<circle style="fill:#CECECE;" cx="129.761" cy="186.753" r="1.369"/>
			
				<linearGradient id="SVGID_00000159449824697042937690000006824730950847392660_" gradientUnits="userSpaceOnUse" x1="71.4251" y1="157.2896" x2="105.7307" y2="178.9828">
				<stop  offset="0" style="stop-color:#F8F8F8"/>
				<stop  offset="1" style="stop-color:#D7F8FF"/>
			</linearGradient>
			<polygon style="fill:url(#SVGID_00000159449824697042937690000006824730950847392660_);" points="105.503,166.871 
				108.375,179.335 105.251,181.736 116.724,203.694 116.881,202.541 112.664,165.608 			"/>
			<g>
				<path style="fill:#999999;" d="M110.563,199.843l-0.753-0.072c0.01-0.102,0.95-10.235-2.164-13.781
					c-0.666-0.758-1.448-1.142-2.391-1.173c-1.587-0.049-2.915,0.48-3.956,1.583c-3.613,3.832-2.79,13.277-2.781,13.372l-0.754,0.07
					c-0.037-0.401-0.864-9.879,2.984-13.96c1.196-1.267,2.721-1.871,4.532-1.821c1.148,0.038,2.135,0.52,2.935,1.431
					C111.544,189.283,110.605,199.414,110.563,199.843z"/>
			</g>
			<path style="fill:#999999;" d="M109.114,199.429c0-0.348,0.442-0.631,0.987-0.631c0.545,0,0.987,0.282,0.987,0.631
				c0,0.348-0.442,0.631-0.987,0.631C109.556,200.059,109.114,199.777,109.114,199.429z"/>
			<path style="fill:#999999;" d="M97.327,199.429c0-0.348,0.442-0.631,0.987-0.631c0.545,0,0.987,0.282,0.987,0.631
				c0,0.348-0.442,0.631-0.987,0.631C97.769,200.059,97.327,199.777,97.327,199.429z"/>
		</g>
		<g>
			<path style="fill:#2E2E4F;" d="M221.082,140.097l-8.781,7.226c0,0-3.009,17.992-1.143,27.454
				c1.865,9.463,1.127,103.074,1.127,103.074s33.783,22.926,47.152,11.827c0,0-14.623-2.339-11.351-16.396
				c4.373-18.785,4.373-31.657-3.586-48.193c-4.351-9.041,2.537-43.424-6.272-54.497L221.082,140.097z"/>
			<path style="fill:#FFC7C7;" d="M218.197,162.551c1.455,1.417,3.053,2.282,4.585,2.282c1.684,0,3.372-0.931,4.854-2.564
				l0.032-6.793l-9.437-0.065L218.197,162.551z"/>
			<path style="fill:#FFC7C7;" d="M218.17,166.802l0.064-15.726l9.419,0.074l0.993,16.003c7.279,1.695,11.983,7.169,12.834,15.102
				c0.123,1.146,0.127,2.379,0.042,3.488l-4.051,48.97c-0.616,7.445-7.084,12.976-14.446,12.353
				c-6.493-0.549-11.512-5.707-12.184-12.023l-5.238-48.855C204.656,177.368,210.095,169.338,218.17,166.802z"/>
			<path style="fill:#FFC7C7;" d="M214.719,227.301c1.117,12.162,1.605,24.304,1.889,36.44c0.148,6.068,0.198,12.134,0.222,18.2
				c-0.012,3.033,0.006,6.065-0.03,9.097c-0.016,3.032-0.095,6.064-0.033,9.097c0.152,12.131,0.116,24.26-0.142,36.392
				c-0.294,12.132-0.746,24.266-1.762,36.411c-0.114,1.369-1.317,2.386-2.686,2.272c-1.215-0.102-2.152-1.061-2.268-2.232
				c-1.21-12.138-1.855-24.288-2.344-36.439c-0.451-12.151-0.681-24.305-0.724-36.457c-0.065-3.038,0.109-6.076,0.178-9.113
				c0.085-3.038,0.222-6.075,0.33-9.112c0.264-6.074,0.554-12.148,0.942-18.219c0.765-12.143,1.733-24.28,3.33-36.397
				c0.113-0.853,0.895-1.454,1.748-1.341C214.107,225.996,214.654,226.592,214.719,227.301z"/>
			<path style="fill:#FFC7C7;" d="M239.199,228.007l-1.085,71.704l-0.179-1.949l16.493,74.483c0.333,1.504-0.616,2.993-2.12,3.327
				c-1.426,0.316-2.842-0.532-3.269-1.901l-22.481-72.9l-0.026-0.086c-0.19-0.616-0.232-1.263-0.152-1.863l9.732-71.049
				c0.116-0.849,0.898-1.443,1.747-1.326C238.645,226.554,239.212,227.233,239.199,228.007z"/>
			<path style="fill:#658BC8;" d="M213.171,174.726c0,0,8.154,16.723,18.094,0c9.941-16.723,0,48.62,0,48.62s-6.788,4.026-19.482,0
				C199.089,219.32,213.171,174.726,213.171,174.726z"/>
			<path style="fill:#FFC7C7;" d="M239.191,228.552c-0.15-0.527-0.302-1.057-0.462-1.602c0,0-0.882,0.145-2.455,0.327
				c-0.078,0.152-0.138,0.316-0.162,0.495l-9.732,71.049c-0.08,0.6-0.038,1.247,0.152,1.863l0.026,0.086l2.03,6.584
				c4.088-0.327,7.949-0.932,10.759-1.986c0,0-0.012-0.484-0.027-1.349l-1.191-5.378L239.191,228.552z"/>
			<path style="fill:#FFC7C7;" d="M208.292,263.637c-0.388,6.072-0.679,12.145-0.942,18.219c-0.109,3.037-0.246,6.074-0.33,9.112
				c-0.068,3.038-0.243,6.075-0.178,9.113c0.008,2.392,0.03,4.784,0.053,7.176c1.223,0.089,5.107,0.346,9.937,0.416
				c-0.015-2.513-0.033-5.026-0.065-7.538c-0.063-3.033,0.016-6.065,0.033-9.097c0.035-3.032,0.018-6.065,0.03-9.097
				c-0.023-6.065-0.074-12.132-0.222-18.2c-0.281-11.988-0.763-23.981-1.851-35.994c-1.038-0.071-2.095-0.159-3.165-0.263
				C210.014,239.52,209.052,251.576,208.292,263.637z"/>
			<path style="fill:#658BC8;" d="M207.099,223.277c0,0-3.675,20.566-3.365,34.318c0.31,13.752,2.745,45.959,2.745,45.959
				s22.958,1.858,32.868-1.858c0,0-0.619-24.689,1.548-37.119c2.168-12.43,4.026-20.31-2.168-41.3
				C238.729,223.277,224.09,225.686,207.099,223.277z"/>
			<path style="opacity:0.29;fill:#232323;" d="M217.646,256.933c0,0,1.47-15.924,1.92-32.631
				c-3.859-0.104-8.083-0.403-12.467-1.025c0,0-2.747,15.384-3.289,28.439C209.869,256.928,217.646,256.933,217.646,256.933z"/>
			<path style="opacity:0.29;fill:#232323;" d="M218.973,196.724c-1.517-13.886-2.071-24.686-1.862-30.058
				c-7.851,2.645-12.439,10.463-11.509,19.039l6.086,27.312c0.504,4.679,3.447,8.714,7.621,10.673
				C220.194,210.909,220.45,210.247,218.973,196.724z"/>
			<path style="opacity:0.29;fill:#232323;" d="M239.064,214.055c0.01-12.734,0.112-9.583,0.319-14.021l1.023-9.515
				c0,0,0.726-3.701,1.029-7.915c-0.976-7.749-5.665-14.252-12.815-15.938c0.128,2.488-0.379,15.139-2.237,32.214
				c-1.521,13.974,0.732,46.515,1.585,58.052c5.551-1.26,14.483-1.615,14.982-7.651l-3.872-33.292
				C239.068,215.353,239.063,214.708,239.064,214.055z"/>
			<path style="fill:#313333;" d="M217.11,166.667c0,0-1.142,13.014,0.947,32.214c2.09,19.2-1.259,55.617-1.259,55.617
				s-10.071,0-15.852-7.912c0,0,5.574-13.773,3.716-33.526c-1.858-19.753-5.058-15.831,0.619-29.742l-1.858,6.892
				c0,0-2.89-17.496,2.271-19.484C210.857,168.739,217.11,166.667,217.11,166.667z"/>
			<path style="fill:#313333;" d="M228.619,166.667c0,0,0.859,13.014-1.23,32.214c-2.09,19.2,1.259,55.617,1.259,55.617
				s10.071,0,15.852-7.912c0,0-4.444-12.69-4.429-32.53c0.01-12.734,0.112-9.582,0.319-14.021l1.023-9.515
				c0,0,3.5-17.806-1.662-19.793C234.589,168.739,228.619,166.667,228.619,166.667z"/>
			<path style="fill:#232323;" d="M209.181,369.138c0,0,3.535,1.589,6.322,0c0,0-0.619,7.882,1.239,13.698
				c1.858,5.815-9.29,5.287-9.6,2.311C206.831,382.172,209.517,373.552,209.181,369.138z"/>
			<path style="fill:#232323;" d="M247.606,369.138c0,0,2.4,8.519,1,16.39c-0.194,1.09,0.728,2.06,1.82,1.88
				c1.36-0.223,3.123-1.019,4.613-3.352c2.89-4.528,0.206-9.86,0.206-9.86l1.136,2.442l0.929-3.681c0,0-2.676-5.178-3.819-6.126
				C253.49,366.832,250.806,369.896,247.606,369.138z"/>
			<path style="fill:#FFC7C7;" d="M228.628,221.777c0,0-5.495,1.162-9.074,2.519c-3.579,1.357-9.07-0.792-9.958-3.928
				c-0.888-3.135,11.236-2.059,11.236-2.059l5.033-0.675L228.628,221.777z"/>
			<path style="fill:#313333;" d="M201.967,173.934l-7.261,33.666l1.449-2.142l-11.915,8.519c-1.67,1.194-2.055,3.515-0.862,5.184
				c1.194,1.67,3.515,2.055,5.184,0.862l11.916-8.519l1.074-0.768l0.375-1.374l9.066-33.225c0.676-2.476-0.784-5.031-3.26-5.706
				c-2.476-0.676-5.031,0.784-5.706,3.26C202.006,173.766,201.984,173.858,201.967,173.934z"/>
			<g style="opacity:0.29;">
				<path style="fill:#232323;" d="M238.228,171.728c-2.474,0.679-3.929,3.235-3.25,5.709l5.634,20.526l0.801-7.444
					c0,0,2.785-14.186-0.291-18.642C240.228,171.533,239.222,171.455,238.228,171.728z"/>
				<path style="fill:#232323;" d="M226.874,225.09l13.359-4.441c-0.104-2.098-0.164-4.295-0.162-6.593
					c0.001-1.223,0.003-2.296,0.005-3.246l-13.369,5.37C226.722,219.131,226.782,222.132,226.874,225.09z"/>
			</g>
			<path style="fill:#FFC7C7;" d="M220.927,223.813c3.458-1.138,7.701-2.036,7.701-2.036l-2.764-4.142l-5.033,0.675
				c0,0-0.798-0.071-1.968-0.123L220.927,223.813z"/>
			<path style="fill:#313333;" d="M222.468,225.419l28.92-9.615c2.434-0.813,3.818-3.415,3.091-5.899l-0.03-0.104l-10.533-36.032
				c-0.711-2.427-3.24-3.848-5.688-3.176c-2.474,0.679-3.929,3.235-3.25,5.709l8.757,31.902l-24.038,9.656L222.468,225.419z"/>
			<polygon style="fill:#AFAFAF;" points="213.626,232.327 187.631,232.327 178.34,193.708 204.335,193.708 			"/>
			<polygon style="fill:#303030;" points="213.006,232.946 187.011,232.946 177.721,194.327 203.716,194.327 			"/>
			<polygon style="fill:#232323;" points="198.316,199.5 185.306,199.5 184.572,197.034 197.582,197.034 			"/>
			<polygon style="fill:#AFAFAF;" points="195.789,198.428 187.564,198.428 187.331,197.333 195.557,197.333 			"/>
			<path style="fill:#FFC7C7;" d="M182.76,215.274c0,0,2.414,1.723,4.571,1.878c2.158,0.155,2.322,4.777,0,6.125
				c-2.322,1.348-3.868,1.48-4.571,0C182.057,221.798,180.692,214.108,182.76,215.274z"/>
			<g>
				<path style="fill:#FFC7C7;" d="M230.608,149.778c-0.385,7.008-4.662,12.205-8.9,12.205c-3.534,0-7.456-4.012-8.738-8.64
					c-0.161-0.581-0.31-1.331-0.427-2.133c-0.194-1.326-0.302-2.796-0.242-3.887c0.385-7.008,3.806-10.986,9.382-10.718
					C227.259,136.872,230.993,142.77,230.608,149.778z"/>
			</g>
			<path style="fill:#2E2E4F;" d="M215.127,139.147c0,0,3.57,8.178,11.579,10.744c0,0,4.267,2.64,0.947,8.662
				c-3.32,6.022,2.177,8.609,2.177,8.609l8.397,3.431c0,0-5.088-6.061-4.678-15.882c0.41-9.821-2.978-17.745-10.617-18.702
				C215.293,135.052,215.127,139.147,215.127,139.147z"/>
			<path style="fill:#FFC7C7;" d="M231.27,152.141c-0.103,1.877-0.969,3.361-1.713,3.326c-0.744-0.036-1.264-1.586-1.161-3.463
				c0.103-1.877,0.741-2.466,1.485-2.43C230.625,149.609,231.373,150.264,231.27,152.141z"/>
			<path style="fill:#2E2E4F;" d="M216.832,139.592c0,0-1.14,10.602-3.862,13.751c-2.722,3.149-1.141,15.135-1.141,15.135
				l-4.097,1.952c0,0,3.325-14.781,3.425-20.539c0.1-5.758,1.034-11.227,6.404-12.555
				C222.932,136.009,216.832,139.592,216.832,139.592z"/>
		</g>
		<g>
			<path style="fill:#FFD79E;" d="M204.12,95.406L204.12,95.406c2.575,4.213,1.246,9.715-2.967,12.29l-23.201,14.179
				c-4.213,2.575-9.715,1.246-12.29-2.966h0c-2.575-4.213-1.246-9.715,2.967-12.29L191.83,92.44
				C196.043,89.865,201.546,91.193,204.12,95.406z"/>
			<path style="fill:#FCFCFC;" d="M165.662,118.908L165.662,118.908c2.575,4.213,8.077,5.541,12.29,2.966l11.601-7.089
				l-9.324-15.256l-11.601,7.089C164.416,109.193,163.088,114.695,165.662,118.908z"/>
			<path style="opacity:0.33;fill:#B3D2CD;" d="M165.662,118.908L165.662,118.908c0.38,0.623,0.826,1.181,1.321,1.674
				c-1.23-3.837,0.263-8.157,3.853-10.351l23.201-14.179c3.59-2.194,8.116-1.552,10.969,1.292c-0.213-0.665-0.506-1.317-0.887-1.939
				l0,0c-2.575-4.213-8.077-5.541-12.29-2.966l-23.201,14.179C164.416,109.193,163.088,114.695,165.662,118.908z"/>
		</g>
		<path style="fill:#AFEEFF;" d="M444.234,312.839l-12.971-28.713c0,0-3.789-0.513-8.119,1.11l-4.771-8.113l0,0l3.041,8.871
			c-2.163,1.093-4.354,2.781-6.191,5.378l12.971,28.713l4.666-2.108l2.018,4.466l-2.041,0.922l1.58,3.497l10.79-4.874l-1.58-3.497
			l-2.041,0.922l-2.018-4.466L444.234,312.839z M429.145,317.006l-1.404-3.109l5.238-2.366l-0.88-1.948l-5.238,2.366l-0.856-1.895
			l5.238-2.366l-0.88-1.948l-5.238,2.366l-0.856-1.895l5.238-2.366l-0.88-1.948l-5.238,2.366l-0.856-1.895l5.238-2.366l-0.88-1.948
			l-5.238,2.366l-0.856-1.895l5.238-2.366l-0.88-1.948l-5.238,2.366l-1.755-3.886l12.151-5.489l10.983,24.313L429.145,317.006z"/>
		<g>
			<g>
				<path style="fill:#AFEEFF;" d="M409.654,126.987l-26.849,17.152c-0.5,0.319-0.646,0.984-0.327,1.483l27.596,43.197
					c0.319,0.5,0.983,0.646,1.483,0.327l26.849-17.152c0.5-0.319,0.646-0.984,0.327-1.483l-27.596-43.197
					C410.818,126.813,410.154,126.667,409.654,126.987z M436.345,170.762l-25.039,15.996l-26.44-41.387l25.039-15.996
					L436.345,170.762z"/>
				<path style="fill:#AFEEFF;" d="M392.38,150.874c0.838,1.311,2.58,1.695,3.891,0.857c1.311-0.838,1.695-2.58,0.858-3.891
					c-0.838-1.311-2.58-1.695-3.891-0.858C391.926,147.821,391.542,149.563,392.38,150.874z"/>
				<path style="fill:#AFEEFF;" d="M403.577,147.064c1.311-0.838,1.695-2.58,0.857-3.891c-0.838-1.311-2.58-1.695-3.891-0.858
					c-1.311,0.838-1.695,2.58-0.858,3.891C400.523,147.518,402.266,147.902,403.577,147.064z"/>
				<path style="fill:#AFEEFF;" d="M410.883,142.397c1.311-0.838,1.695-2.58,0.857-3.891c-0.838-1.311-2.58-1.695-3.891-0.858
					c-1.311,0.838-1.695,2.58-0.858,3.891C407.829,142.851,409.572,143.235,410.883,142.397z"/>
				<path style="fill:#AFEEFF;" d="M402.013,160.72c1.311-0.838,1.695-2.58,0.858-3.891c-0.838-1.311-2.58-1.695-3.891-0.857
					c-1.311,0.838-1.695,2.58-0.858,3.891C398.96,161.174,400.702,161.558,402.013,160.72z"/>
				<path style="fill:#AFEEFF;" d="M405.428,155.195c0.838,1.311,2.58,1.695,3.891,0.857c1.311-0.838,1.695-2.58,0.857-3.891
					c-0.838-1.311-2.58-1.695-3.891-0.857C404.974,152.141,404.59,153.884,405.428,155.195z"/>
				<path style="fill:#AFEEFF;" d="M412.734,150.528c0.838,1.311,2.58,1.695,3.891,0.857c1.311-0.838,1.695-2.58,0.858-3.891
					c-0.838-1.311-2.58-1.695-3.891-0.857C412.28,147.474,411.896,149.216,412.734,150.528z"/>
				<path style="fill:#AFEEFF;" d="M408.613,165.817c-0.838-1.311-2.58-1.695-3.891-0.858c-1.311,0.838-1.695,2.58-0.858,3.891
					c0.838,1.311,2.58,1.695,3.891,0.857C409.066,168.87,409.451,167.128,408.613,165.817z"/>
				<path style="fill:#AFEEFF;" d="M415.919,161.15c-0.838-1.311-2.58-1.695-3.891-0.857c-1.311,0.838-1.695,2.58-0.857,3.891
					c0.838,1.311,2.58,1.695,3.891,0.858C416.372,164.203,416.756,162.461,415.919,161.15z"/>
				<path style="fill:#AFEEFF;" d="M419.333,155.625c-1.311,0.838-1.695,2.58-0.858,3.891c0.838,1.311,2.58,1.695,3.891,0.858
					c1.311-0.838,1.695-2.58,0.858-3.891C422.387,155.171,420.645,154.787,419.333,155.625z"/>
				<path style="fill:#AFEEFF;" d="M410.464,173.947c-1.311,0.838-1.695,2.58-0.858,3.891c0.838,1.311,2.58,1.695,3.891,0.858
					c1.311-0.838,1.695-2.58,0.857-3.891C413.517,173.494,411.775,173.11,410.464,173.947z"/>
				<path style="fill:#AFEEFF;" d="M417.769,169.28c-1.311,0.838-1.695,2.58-0.858,3.891c0.838,1.311,2.58,1.695,3.891,0.858
					c1.311-0.838,1.695-2.58,0.858-3.891C420.823,168.826,419.081,168.442,417.769,169.28z"/>
				<path style="fill:#AFEEFF;" d="M425.075,164.613c-1.311,0.838-1.695,2.58-0.858,3.891s2.58,1.695,3.891,0.857
					c1.311-0.838,1.695-2.58,0.858-3.891C428.129,164.159,426.387,163.775,425.075,164.613z"/>
			</g>
		</g>
		<g>
			<path style="fill:#FFD79E;" d="M338.708,334.255L338.708,334.255c0,4.879-3.955,8.833-8.833,8.833h-3.94v22.561h3.94
				c4.879,0,8.833,3.955,8.833,8.834l0,0c0,1.626,1.318,2.944,2.944,2.944h40.228c1.626,0,2.944-1.318,2.944-2.944v-40.228
				c0-1.626-1.318-2.944-2.944-2.944h-40.228C340.026,331.31,338.708,332.629,338.708,334.255z"/>
			
				<rect x="342.896" y="343.959" transform="matrix(6.123234e-17 -1 1 6.123234e-17 2.0473 720.3234)" style="fill:#FCFCFC;" width="36.578" height="30.357"/>
			<g style="opacity:0.53;">
				<path style="fill:#F9B9EE;" d="M345.551,372.978c-2.03,0-3.675-1.318-3.675-2.944v0c0-4.879-4.936-8.833-11.025-8.833h-4.917
					v4.449h3.94c4.879,0,8.833,3.955,8.833,8.834l0,0c0,1.626,1.318,2.944,2.944,2.944h40.228c1.626,0,2.944-1.318,2.944-2.944
					v-1.505H345.551z"/>
			</g>
			<path style="opacity:0.25;fill:#FCFCFC;" d="M361.852,331.31h-20.2c-1.626,0-2.944,1.318-2.944,2.944l0,0
				c0,4.879-3.955,8.833-8.833,8.833h-3.94v22.561h3.94c4.879,0,8.833,3.955,8.833,8.834l0,0c0,1.626,1.318,2.944,2.944,2.944h9.98
				L361.852,331.31z"/>
			<g>
				<rect x="327.167" y="342.677" style="fill:#FFD79E;" width="0.988" height="23.447"/>
				<rect x="327.167" y="342.677" style="opacity:0.5;fill:#FFD79E;" width="0.988" height="23.447"/>
			</g>
			<g>
				<rect x="330.951" y="342.677" style="fill:#FFD79E;" width="0.988" height="23.447"/>
				<rect x="330.951" y="342.677" style="opacity:0.5;fill:#FFD79E;" width="0.988" height="23.447"/>
			</g>
			<g>
				<rect x="329.074" y="342.677" style="fill:#FFD79E;" width="0.988" height="23.447"/>
				<rect x="329.074" y="342.677" style="opacity:0.5;fill:#FFD79E;" width="0.988" height="23.447"/>
			</g>
		</g>
		<g>
			<path style="fill:#9CFAED;" d="M277.162,355.436L277.162,355.436c-1.159-3.895,1.059-7.993,4.954-9.152l21.452-6.384
				c3.895-1.159,7.993,1.059,9.152,4.954l0,0c1.159,3.895-1.059,7.993-4.954,9.152l-21.452,6.384
				C282.418,361.549,278.321,359.331,277.162,355.436z"/>
			<path style="fill:#FCFCFC;" d="M312.719,344.853L312.719,344.853c-1.159-3.895-5.257-6.113-9.152-4.954l-10.726,3.192
				l4.198,14.106l10.726-3.192C311.661,352.846,313.878,348.748,312.719,344.853z"/>
			<path style="opacity:0.33;fill:#B3D2CD;" d="M312.719,344.853L312.719,344.853c-0.171-0.576-0.408-1.114-0.698-1.611
				c0.169,3.312-1.931,6.434-5.25,7.422l-21.452,6.384c-3.32,0.988-6.785-0.478-8.454-3.343c0.029,0.574,0.125,1.154,0.296,1.73l0,0
				c1.159,3.895,5.257,6.113,9.152,4.954l21.452-6.384C311.661,352.846,313.878,348.748,312.719,344.853z"/>
		</g>
		<path style="fill:#AFEEFF;" d="M341.848,108.567c6.719-11.018,3.22-25.449-7.798-32.167c-11.018-6.719-25.448-3.22-32.167,7.798
			c-6.168,10.116-3.72,23.102,5.248,30.362c-0.573,0.295-1.077,0.742-1.439,1.332l-16.577,27.014
			c-1.055,1.719-0.516,3.968,1.203,5.023c0.003,0.002,0.006,0.004,0.009,0.006c1.718,1.047,3.961,0.508,5.014-1.208l16.577-27.014
			c0.366-0.596,0.536-1.255,0.536-1.906C323.013,122.452,335.679,118.682,341.848,108.567z M311.344,113.636
			c-9.514-5.801-12.534-18.261-6.733-27.775c5.801-9.514,18.261-12.534,27.775-6.733c9.514,5.801,12.535,18.261,6.733,27.775
			C333.318,116.417,320.858,119.437,311.344,113.636z M334.439,90.655c0-4.283-1.603-7.754-5.243-7.754
			c-1.158,0-2.383,0.352-3.515,0.97c-3.441,1.282-6.56,0-6.56,0c-1.132-0.618-2.357-0.97-3.516-0.97
			c-3.64,0-5.243,3.472-5.243,7.754c0,2.318,1.122,5.053,2.729,7.074c-1.564,7.639,1.75,14.296,4.294,14.786
			c2.436,0.469,1.361-12.488,4.494-13.13c0.084-0.016,0.166-0.024,0.245-0.024c0.079,0,0.161,0.008,0.245,0.024
			c3.134,0.643,2.058,13.6,4.494,13.13c2.484-0.479,5.704-6.82,4.396-14.251C333.103,96.21,334.439,93.184,334.439,90.655z"/>
		<g>
			<path style="fill:#F9B9EE;" d="M392.833,289.153L392.833,289.153c-2.248,3.614-7,4.721-10.615,2.473l-19.903-12.381
				c-3.614-2.248-4.721-7-2.473-10.614v0c2.248-3.614,7-4.721,10.615-2.473l19.903,12.381
				C393.974,280.787,395.081,285.539,392.833,289.153z"/>
			<path style="fill:#FCFCFC;" d="M359.843,268.631L359.843,268.631c-2.248,3.614-1.141,8.366,2.473,10.615l9.951,6.19l8.141-13.088
				l-9.951-6.19C366.843,263.909,362.091,265.017,359.843,268.631z"/>
			<path style="opacity:0.33;fill:#B3D2CD;" d="M359.843,268.631L359.843,268.631c-0.332,0.534-0.589,1.094-0.778,1.666
				c2.479-2.433,6.384-2.955,9.464-1.039l19.903,12.381c3.08,1.916,4.337,5.65,3.251,8.949c0.43-0.422,0.818-0.9,1.15-1.434l0,0
				c2.248-3.614,1.141-8.366-2.473-10.614l-19.903-12.381C366.843,263.909,362.091,265.017,359.843,268.631z"/>
		</g>
	</g>
</g>
</svg>
